<svg id="Layer_1" data-name="Layer 1" xmlns="http://www.w3.org/2000/svg" viewBox="0 0 931.92 266.26"><g id="_007._Pattern_1" data-name="007. Pattern 1"><path d="M233.74,497.28H167.41c1.73-24.94,15.91-127.69,132.89-127.69,0,0-199.69-33.29-199.69,133.13h66.32C165.21,527.66,151,630.41,34,630.41,34,630.41,233.74,663.7,233.74,497.28Z" transform="translate(-34.04 -366.87)"/><path d="M366.87,497.28H300.55c1.72-24.94,15.9-127.69,132.88-127.69,0,0-199.69-33.29-199.69,133.13h66.32c-1.72,24.94-15.91,127.69-132.89,127.69C167.17,630.41,366.87,663.7,366.87,497.28Z" transform="translate(-34.04 -366.87)"/><path d="M500,497.28H433.68c1.72-24.94,15.9-127.69,132.89-127.69,0,0-199.7-33.29-199.7,133.13h66.32c-1.72,24.94-15.91,127.69-132.89,127.69C300.3,630.41,500,663.7,500,497.28Z" transform="translate(-34.04 -366.87)"/><path d="M633.13,497.28H566.81c1.72-24.94,15.91-127.69,132.89-127.69,0,0-199.7-33.29-199.7,133.13h66.32c-1.72,24.94-15.9,127.69-132.89,127.69C433.43,630.41,633.13,663.7,633.13,497.28Z" transform="translate(-34.04 -366.87)"/><path d="M766.26,497.28H699.94c1.72-24.94,15.91-127.69,132.89-127.69,0,0-199.7-33.29-199.7,133.13h66.32c-1.72,24.94-15.9,127.69-132.88,127.69C566.57,630.41,766.26,663.7,766.26,497.28Z" transform="translate(-34.04 -366.87)"/><path d="M966,369.59s-199.7-33.29-199.7,133.13h66.33c-1.73,24.94-15.91,127.69-132.89,127.69,0,0,199.69,33.29,199.69-133.13H833.07C834.79,472.34,849,369.59,966,369.59Z" transform="translate(-34.04 -366.87)"/></g></svg>