<svg id="Layer_1" data-name="Layer 1" xmlns="http://www.w3.org/2000/svg" viewBox="0 0 853.04 304.66"><g id="_023._Pattern_5" data-name="023. Pattern 5"><path d="M591.4,500H500L682.8,652.33S500,500,621.86,500h91.4L530.47,347.67S713.26,500,591.4,500Z" transform="translate(-73.48 -347.67)"/><path d="M378.14,500h-91.4L469.53,652.33S286.74,500,408.6,500H500L317.2,347.67S500,500,378.14,500Z" transform="translate(-73.48 -347.67)"/><path d="M164.88,500H73.48L256.27,652.33S73.48,500,195.34,500h91.4L103.94,347.67S286.74,500,164.88,500Z" transform="translate(-73.48 -347.67)"/><path d="M835.12,500h91.4L743.73,347.67S926.52,500,804.66,500h-91.4l182.8,152.33S713.26,500,835.12,500Z" transform="translate(-73.48 -347.67)"/></g></svg>